<?xml version="1.0" encoding="utf-8"?>
<!-- Generator: Adobe Illustrator 26.3.1, SVG Export Plug-In . SVG Version: 6.00 Build 0)  -->
<svg version="1.1" id="图层_1" xmlns="http://www.w3.org/2000/svg" xmlns:xlink="http://www.w3.org/1999/xlink" x="0px" y="0px"
	 viewBox="0 0 370 274" style="enable-background:new 0 0 370 274;" xml:space="preserve">
<style type="text/css">
	.st0{fill:#F0F0F0;}
	.st1{fill:#E6E6E6;}
	.st2{fill:#F2F2F2;}
	.st3{fill:#FFB6B6;}
	.st4{fill:#2F2E41;}
	.st5{fill:#0098FF;}
	.st6{fill:none;stroke:#D0D0D0;stroke-linecap:round;stroke-dasharray:2;}
</style>
<g id="ibpm">
	<g id="error" transform="translate(-435.000000, -130.000000)">
		<g id="编组-3" transform="translate(0.000000, 40.000000)">
			<g id="编组" transform="translate(435.000000, 90.000000)">
				<g id="undraw_dreamer_re_9tua">
					<path id="形状" class="st0" d="M123.3,266.2c-11.3,0-22.6-0.2-33.8-0.5c-16.1-0.5-32.7-1-48.2-8.5
						C30.4,252,20.8,243.6,13.5,233c-4.8-7.1-8.4-14.9-10.6-23.2c-1.1-4-1.9-8-2.3-12.1c-1.3-11.1-0.4-22.3,2.7-33
						c1.5-5.1,3.6-10,6.2-14.7c11.3-20.3,31.8-34,56.4-37.4c0.2,0,0.4,0,0.6,0c0.1,0,0.2,0,0.3,0l0.1,0c0.4-0.1,0.8-0.2,1.1-0.3
						c37.9-4.9,78,5,115.9,28.7c29.3,18.3,68.2,28.2,118.8,30.2l0.7,0c14.1,0.7,27.7,5.8,39.4,14.6c11.4,8.6,20.1,20.3,25.1,33.7
						c0.6,1.6,1.1,3.3,1.6,5c0.9,3.2-0.1,6.5-2.9,9v0l-0.1,0.1c-0.3,0.3-0.6,0.5-0.9,0.7l-0.4,0.3c-3.2,2.3-5.8,4.1-8.8,5.6
						c-2.1,1-4.2,1.7-6.5,2.1c-12.3,2.6-24.9,5-37.2,7.2c-24,4.2-48.7,7.7-73.3,10.3C200.9,264.1,162.1,266.2,123.3,266.2
						L123.3,266.2z M66.3,113.3c-0.1,0-0.2,0-0.2,0c-24.4,3.4-44.7,16.9-55.9,37.1c-2.6,4.6-4.6,9.5-6.1,14.6
						c-3.1,10.6-4,21.7-2.7,32.7c0.5,4.1,1.3,8.1,2.3,12c2.2,8.2,5.7,15.9,10.5,22.9c7.2,10.5,16.7,18.8,27.4,24
						c15.3,7.4,31.9,7.9,47.9,8.4c50.1,1.6,100.2-0.3,150-5.7c24.6-2.6,49.2-6.1,73.2-10.3c12.4-2.2,24.9-4.6,37.2-7.2
						c2.2-0.4,4.3-1.1,6.3-2.1c3-1.4,5.5-3.2,8.7-5.5l0.4-0.3c0.3-0.2,0.6-0.4,0.8-0.6l0.1-0.1c2.6-2.3,3.7-5.4,2.8-8.4v0
						c-0.5-1.7-1-3.4-1.6-5c-9.9-27.2-35.6-46.5-63.8-47.9l-0.7,0c-23.1-0.9-43.3-3.4-61.8-7.6c-22.1-5.1-41.4-12.7-57.3-22.7
						C145.9,118,106,108.1,68.2,113c-0.4,0.1-0.7,0.1-1,0.2l-0.3,0.1c-0.2,0-0.3,0-0.4,0C66.4,113.3,66.3,113.3,66.3,113.3z"/>
					<path id="路径" class="st1" d="M366.4,233.4L366.4,233.4c-0.3,0.3-0.6,0.5-0.9,0.7c-5.3,3.8-9,6.5-15.5,7.9
						c-12.4,2.6-24.8,5-37.2,7.2c-24.3,4.3-48.7,7.7-73.2,10.3c-49.8,5.4-99.9,7.3-150,5.7c-16.7-0.5-32.8-1.1-48-8.5
						c-11.2-5.4-20.6-13.9-27.6-24.1c-7.1-10.3-11.4-22.6-12.9-35.1c3.5-1.5,7.1-2.5,10.9-2.8c13-1.2,25.9,3.5,37.7,9.1
						c11.9,5.6,23.5,12.1,36.4,14.6c18.9,3.8,38.5-1.4,56.6-8c18.2-6.6,36-14.7,55.2-17.2c25.7-3.3,51.4,3.7,76.4,10.7
						c26.6,7.5,53.1,14.9,79.7,22.4c3.8,1.1,7.7,2.2,10.7,4.8C365.2,231.9,365.8,232.7,366.4,233.4z"/>
					<path id="路径_00000054984765720791701210000013922346074651450777_" class="st2" d="M366.4,233.4L366.4,233.4
						c-0.3,0.3-0.6,0.5-0.9,0.7c-3.3,2.4-6,4.3-9.2,5.8c-10.8,1.1-21.7,2-32.5,2.8c-27.9,2-55.9,3.1-83.9,3.2
						c-56.9,0.3-116.7,2.1-166.5-25.6c-16.6-9.2-40.6,9.7-57-0.4c-4.7-2.9-9.1-6.4-13.1-10.2c-1.1-4-1.9-8-2.3-12.1
						c-1.3-11-0.4-22.2,2.7-32.8c1.5-5.1,3.6-10,6.1-14.6c7.6,2.7,14.9,6.7,21.9,10.9c12.8,7.7,25.2,16.4,39.4,20.7
						c21,6.5,43.6,2.9,64.9-2.4c21.3-5.3,42.4-12.5,64.3-13.1c29.4-0.8,57.7,10.2,85,21c27.4,10.8,54.9,21.7,82.4,32.5
						c0.6,1.6,1.1,3.3,1.6,5C370.3,228.2,368.9,231.3,366.4,233.4z"/>
					<path id="路径_00000060032346136160795080000011863321257546246545_" class="st1" d="M98.8,93.6c-4.1-2.8-3.7-8.9,0.6-11.3
						c0.1,0,0.2-0.1,0.3-0.2c0.2-1.1,0.4-2.1,0.7-3.2c1.3,1.3,3.8,1.1,4.8-0.5c-3.5-7.5-8.1-14.3-13.6-20.4
						c-2.5-2.8-2.5-6.9-0.1-9.8c0,0,0,0,0.1-0.1c3.1-1.1,6.1-2.6,8.8-4.4C91,28.9,73.4,17.1,69.2,0C56.5,13.6,55.1,18.4,42.5,32
						c0,0-12,10.8-14.5,16.6c0.6,0.7,6.3,2.3,6.5,3.6c4.3,0.3,11.8-4.4,11.8-4.4S29.9,65.3,25,76.1c-0.4,1-0.9,2.1-0.5,3.1
						c0.3,0.8,1.4,1.3,2.1,0.9c-0.8,0.8-1.5,1.8-2,2.8c3,1.9,6.9,1.5,9.4-0.9c-0.7,1.3-1.4,2.6-2.1,3.9l0,0c1.9,0.6,3.3,2.2,3.8,4.2
						c0.4,2-0.2,4-1.7,5.4c-4.3,4-8.2,8.2-9.7,11C23,109,36.9,112.1,40,112c3.1-0.1,6-1.5,8.9-2.9c-0.1,1.3,0.1,2.6,0.7,3.7
						c3.1,0.8,6.4,0.2,9.1-1.5c-0.1,2.6,3.1,4,5.4,3.3c-1.1,17.8-0.3,42.9,0.8,68.9h2.7v-67.9c0.7,0.4,1.5,0.6,2.3,0.8
						c5.5,1,12.1,1.6,15.7-2.7c4.1,4.2,11.6,4.1,15.7-0.1c-0.4,0.7,0.2,1.9,1.1,2.1c1.1,0.2,2.1-0.4,3-1c4.1-2.8,8.3-5.5,12.4-8.3
						C112.7,103,105.5,98.1,98.8,93.6z"/>
					<ellipse id="椭圆形" class="st2" cx="222.6" cy="72.3" rx="13" ry="13"/>
					<path id="路径_00000048489123189561782100000017720979624360454027_" class="st1" d="M251.6,66.2c-0.7-2.5-2.9-4.2-5.4-4.5
						c0,0-0.1,0-0.1,0c0,0-0.1,0-0.1,0c-3.6-0.4-7.3,0.4-10.4,2.3c-3,1.9-6.5,2.7-10,2.9c0,0,0,0-0.1,0c-2.7,0.2-5,2-5.7,4.6
						c-0.1,0.3,0.1,0.7,0.3,0.8c0.4,0.3,0.9,0.6,1.4,0.7c1.1,0.2,2.2,0.4,3.2,0.6c2.1,0.4,4.2,0.7,6.4,0.9c4.3,0.5,8.7,0.6,13.1,0.5
						c1.5,0,2.9-0.1,4.2-0.7c1-0.5,1.8-1.2,2.4-2.1C251.9,70.4,252.2,68.2,251.6,66.2L251.6,66.2z"/>
					<path id="路径_00000054953711555775748810000007933812058387894682_" class="st1" d="M224.7,83.5c-0.7-2.5-2.9-4.2-5.4-4.5
						c0,0-0.1,0-0.1,0c0,0-0.1,0-0.1,0c-3.6-0.4-7.3,0.4-10.4,2.3c-3,1.9-6.5,2.7-10,2.9c0,0,0,0-0.1,0c-2.7,0.2-5,2-5.7,4.6
						c-0.1,0.3,0.1,0.7,0.3,0.8c0.4,0.3,0.9,0.6,1.4,0.7c1.1,0.2,2.2,0.4,3.2,0.6c2.1,0.4,4.2,0.7,6.4,0.9c4.3,0.5,8.7,0.6,13.1,0.5
						c1.5,0,2.9-0.1,4.2-0.7c1-0.5,1.8-1.2,2.4-2.1C225,87.7,225.3,85.5,224.7,83.5z"/>
					<path id="路径_00000061434707550322340390000010336899944478079400_" class="st1" d="M334.3,137.7c-4.1-2.8-3.7-8.9,0.6-11.3
						c0.1,0,0.2-0.1,0.3-0.2c0.2-1.1,0.4-2.1,0.7-3.2c1.3,1.3,3.8,1.1,4.8-0.5c-3.5-7.5-8.1-14.3-13.6-20.4
						c-2.5-2.8-2.5-6.9-0.1-9.8c0,0,0,0,0.1-0.1c3.1-1.1,6.1-2.6,8.8-4.4c-9.3-14.9-26.9-26.8-31.1-43.8
						c-12.6,13.6-14.1,18.4-26.7,32c0,0-12,10.8-14.5,16.6c0.6,0.7,6.3,2.3,6.5,3.6c4.3,0.3,11.8-4.4,11.8-4.4s-16.4,17.5-21.4,28.3
						c-0.4,1-0.9,2.1-0.5,3.1c0.3,0.8,1.4,1.3,2.1,0.9c-0.8,0.8-1.5,1.8-2,2.8c3,1.9,6.9,1.5,9.4-0.9c-0.7,1.3-1.4,2.6-2.1,3.9l0,0
						c1.9,0.6,3.3,2.2,3.8,4.2c0.4,2-0.2,4-1.7,5.4c-4.3,4-8.2,8.2-9.7,11c-1.4,2.6,12.5,5.8,15.7,5.6c3.1-0.1,6-1.5,8.9-2.9
						c-0.1,1.3,0.1,2.6,0.7,3.7c3.1,0.8,6.4,0.2,9.1-1.5c-0.1,2.6,3.1,4,5.4,3.3c-1.1,17.8-0.3,42.9,0.8,68.9h2.7v-67.9
						c0.7,0.4,1.5,0.6,2.3,0.8c5.5,1,12.1,1.6,15.7-2.7c4.1,4.2,11.6,4.1,15.7-0.1c-0.4,0.7,0.2,1.9,1.1,2.1c1.1,0.2,2.1-0.4,3-1
						c4.1-2.8,8.3-5.5,12.4-8.3C348.2,147.1,341,142.2,334.3,137.7z"/>
					<path id="路径_00000127027850006065196020000000837832976711702668_" class="st1" d="M22.9,206.9c0.6,0,1.1-0.3,1.3-0.8
						c0.2-0.5,0.1-1.1-0.3-1.5c0-0.1-0.1-0.2-0.1-0.4c0,0,0-0.1,0-0.1c0.6-1.3,1.8-2.2,3.3-2.2c1.4,0,2.7,0.9,3.2,2.2
						c1.1,2.6,2.4,5.1,2.8,7.9c0.1,1.2,0.1,2.4-0.2,3.6c2.5-5.5,3.8-11.4,3.8-17.4c0-1.5-0.1-3-0.3-4.5c-0.1-1.2-0.3-2.4-0.6-3.7
						c-1.3-6.6-4.2-12.7-8.4-18c-2-1.1-3.7-2.8-4.7-4.9c-0.4-0.7-0.6-1.5-0.8-2.4c0.2,0,0.5,0,0.7,0.1c0.1,0,0.1,0,0.2,0l0,0
						c0.5,0,1-0.3,1.2-0.7s0.2-1-0.2-1.4c-0.1-0.1-0.2-0.2-0.3-0.4c-0.1-0.2-0.3-0.4-0.5-0.6c0,0,0,0,0-0.1
						c-0.2-0.2-0.3-0.4-0.5-0.6c0.3-0.5,0.7-0.9,1.2-1.2c1.7-1,4.1-0.3,5.3,1.3c1.2,1.6,1.5,3.8,1.1,5.7c-0.4,1.7-1.1,3.2-2.1,4.7
						c0.1,0.1,0.2,0.2,0.3,0.4c1.7,2.2,3.2,4.6,4.4,7.1c-0.3-2.8,0.1-5.6,1.1-8.2c1-2.4,2.9-4.5,4.6-6.6c2-2.5,6.1-1.4,6.5,1.8
						c0,0,0,0.1,0,0.1c-0.2,0.1-0.5,0.3-0.7,0.4c-0.6,0.4-0.9,1.2-0.7,1.9c0.2,0.7,0.7,1.3,1.5,1.4l0,0c-0.1,0.9-0.2,1.8-0.5,2.7
						c-1.3,4.9-4.6,9.1-9.1,11.5c-0.1,0.1-0.3,0.1-0.4,0.2c0.7,1.9,1.2,3.8,1.6,5.8c0.4,1.7,0.6,3.5,0.7,5.2c0.2,2.2,0.2,4.5,0,6.7
						l0-0.1c0.5-2.5,1.8-4.7,3.7-6.3c2.9-2.4,6.9-3.2,10-5.1c0.7-0.4,1.5-0.4,2.2,0s1,1.2,0.9,2c0,0,0,0.1,0,0.1
						c-0.5,0.2-0.9,0.4-1.3,0.6c-0.2,0.1-0.5,0.3-0.7,0.4c-0.6,0.4-0.9,1.2-0.7,1.9c0.2,0.7,0.7,1.3,1.5,1.4l0,0c0,0,0,0,0.1,0
						c-0.8,1.9-1.9,3.6-3.3,5.1c-3.4,3.7-8.2,5.8-13.2,5.8h0c-0.7,2.9-1.7,5.8-2.9,8.5H23.2c0-0.1-0.1-0.2-0.1-0.4
						c1,0.1,1.9,0,2.9-0.2c-0.8-1-1.5-1.9-2.3-2.9c0,0,0,0,0-0.1c-0.4-0.5-0.8-1-1.2-1.5l0,0C22.4,209.8,22.5,208.3,22.9,206.9
						L22.9,206.9z"/>
					<path id="路径_00000157292811629951068250000006469872603690891710_" class="st1" d="M333.7,217.1c0.6,0,1.1-0.3,1.3-0.8
						c0.2-0.5,0.1-1.1-0.3-1.5c0-0.1-0.1-0.2-0.1-0.4c0,0,0-0.1,0-0.1c0.6-1.3,1.8-2.2,3.3-2.2c1.4,0,2.7,0.9,3.2,2.2
						c1.1,2.6,2.4,5.1,2.8,7.9c0.1,1.2,0.1,2.4-0.2,3.6c2.5-5.5,3.8-11.4,3.8-17.4c0-1.5-0.1-3-0.3-4.5c-0.1-1.2-0.3-2.4-0.6-3.7
						c-1.3-6.6-4.2-12.7-8.4-18c-2-1.1-3.7-2.8-4.7-4.9c-0.4-0.7-0.6-1.5-0.8-2.4c0.2,0,0.5,0,0.7,0.1c0.1,0,0.1,0,0.2,0l0,0
						c0.5,0,1-0.3,1.2-0.7c0.2-0.5,0.2-1-0.2-1.4c-0.1-0.1-0.2-0.2-0.3-0.4c-0.1-0.2-0.3-0.4-0.5-0.6c0,0,0,0,0-0.1
						c-0.2-0.2-0.3-0.4-0.5-0.6c0.3-0.5,0.7-0.9,1.2-1.2c1.7-1,4.1-0.3,5.3,1.3c1.2,1.6,1.5,3.8,1.1,5.7c-0.4,1.7-1.1,3.2-2.1,4.7
						c0.1,0.1,0.2,0.2,0.3,0.4c1.7,2.2,3.2,4.6,4.4,7.1c-0.3-2.8,0.1-5.6,1.1-8.2c1-2.4,2.9-4.5,4.6-6.6c2-2.5,6.1-1.4,6.5,1.8
						c0,0,0,0.1,0,0.1c-0.2,0.1-0.5,0.3-0.7,0.4c-0.6,0.4-0.9,1.2-0.7,1.9c0.2,0.7,0.7,1.3,1.5,1.4l0,0c-0.1,0.9-0.2,1.8-0.5,2.7
						c-1.3,4.9-4.6,9.1-9.1,11.5c-0.1,0.1-0.3,0.1-0.4,0.2c1.3,3.6,2,7.3,2.3,11c0.2,2.2,0.2,4.5,0,6.7l0-0.1
						c0.5-2.5,1.8-4.7,3.7-6.3c2.9-2.4,6.9-3.2,10-5.1c0.7-0.4,1.5-0.4,2.2,0c0.7,0.4,1,1.2,0.9,2c0,0,0,0.1,0,0.1
						c-0.5,0.2-0.9,0.4-1.3,0.6c-0.2,0.1-0.5,0.3-0.7,0.4c-0.6,0.4-0.9,1.2-0.7,1.9c0.2,0.7,0.7,1.3,1.5,1.4l0,0c0,0,0,0,0.1,0
						c-0.8,1.9-1.9,3.6-3.3,5.1c-3.4,3.7-8.2,5.8-13.2,5.8h0c-0.7,2.9-1.7,5.8-2.9,8.5H334c0-0.1-0.1-0.2-0.1-0.4
						c1,0.1,1.9,0,2.9-0.2c-0.8-1-1.5-1.9-2.3-2.9c0,0,0,0,0-0.1c-0.4-0.5-0.8-1-1.2-1.5l0,0C333.2,220,333.3,218.5,333.7,217.1
						L333.7,217.1z"/>
					<path id="路径_00000177455519299285375300000012982908818577294779_" class="st1" d="M209.7,186.9c0.6,0,1.1-0.3,1.3-0.8
						c0.2-0.5,0.1-1.1-0.3-1.5c0-0.1-0.1-0.2-0.1-0.4c0,0,0-0.1,0-0.1c0.6-1.3,1.8-2.2,3.3-2.2s2.7,0.9,3.2,2.2
						c1.1,2.6,2.4,5.1,2.8,7.9c0.1,1.2,0.1,2.4-0.2,3.6c2.5-5.5,3.8-11.4,3.8-17.4c0-1.5-0.1-3-0.3-4.5c-0.1-1.2-0.3-2.4-0.6-3.7
						c-1.3-6.6-4.2-12.7-8.4-18c-2-1.1-3.7-2.8-4.7-4.9c-0.4-0.7-0.6-1.5-0.8-2.4c0.2,0,0.5,0,0.7,0.1c0.1,0,0.1,0,0.2,0l0,0
						c0.5,0,1-0.3,1.2-0.7c0.2-0.5,0.2-1-0.2-1.4c-0.1-0.1-0.2-0.2-0.3-0.4c-0.1-0.2-0.3-0.4-0.5-0.6c0,0,0,0,0-0.1
						c-0.2-0.2-0.3-0.4-0.5-0.6c0.3-0.5,0.7-0.9,1.2-1.2c1.7-1,4.1-0.3,5.3,1.3c1.2,1.6,1.5,3.8,1.1,5.7c-0.4,1.7-1.1,3.2-2.1,4.7
						c0.1,0.1,0.2,0.2,0.3,0.4c1.7,2.2,3.2,4.6,4.4,7.1c-0.3-2.8,0.1-5.6,1.1-8.2c1-2.4,2.9-4.5,4.6-6.6c2-2.5,6.1-1.4,6.5,1.8
						c0,0,0,0.1,0,0.1c-0.2,0.1-0.5,0.3-0.7,0.4c-0.6,0.4-0.9,1.2-0.7,1.9c0.2,0.7,0.7,1.3,1.5,1.4l0,0c-0.1,0.9-0.2,1.8-0.5,2.7
						c-1.3,4.9-4.6,9.1-9.1,11.5c-0.1,0.1-0.3,0.1-0.4,0.2c1.3,3.6,2,7.3,2.3,11c0.2,2.2,0.2,4.5,0,6.7l0-0.1
						c0.5-2.5,1.8-4.7,3.7-6.3c2.9-2.4,6.9-3.2,10-5.1c0.7-0.4,1.5-0.4,2.2,0c0.7,0.4,1,1.2,0.9,2c0,0,0,0.1,0,0.1
						c-0.5,0.2-0.9,0.4-1.3,0.6c-0.2,0.1-0.5,0.3-0.7,0.4c-0.6,0.4-0.9,1.2-0.7,1.9c0.2,0.7,0.7,1.3,1.5,1.4l0,0c0,0,0,0,0.1,0
						c-0.8,1.9-1.9,3.6-3.3,5.1c-3.4,3.7-8.2,5.8-13.2,5.8h0c-0.7,2.9-1.7,5.8-2.9,8.5H210c0-0.1-0.1-0.2-0.1-0.4
						c1,0.1,1.9,0,2.9-0.2c-0.8-1-1.5-1.9-2.3-2.9c0,0,0,0,0-0.1c-0.4-0.5-0.8-1-1.2-1.5l0,0C209.2,189.8,209.4,188.3,209.7,186.9
						L209.7,186.9z"/>
					<polygon id="路径_00000083064417283957034650000011727551947876148905_" class="st3" points="143.5,266.3 147.8,265 
						144.9,247.1 138.5,249 					"/>
					<path id="路径_00000104697416726006655700000004735361432398642623_" class="st3" d="M116.7,259.2c0.3,0.2,0.5,0.5,0.8,0.7
						c0.5,0.5,1.1,0.9,1.6,1.4c0.3,0.2,0.5,0.4,0.8,0.7l0,0l0,0l0,0l0.4,0.2l0.9-1.6l0.4-0.8l0.6-1.1l1.1-2l5.9-10.3l-6.2-2.6
						l-0.4,1l0,0l-0.2,0.5l-3.7,8.8l-0.8,1.8l0,0.1l-0.5,1.1l-0.4,0.9l-0.4,1L116.7,259.2z"/>
					<path id="路径_00000067946316837897692020000017224616858140990368_" class="st4" d="M84.4,214.6c0.3,0.7,0.6,1.4,0.9,2.2
						c0.6,1.3,1.2,2.6,1.8,3.9c0,0,0,0,0,0c0.4,0.5,0.9,1,1.4,1.4c0,0,0,0,0.1,0.1c0.4,0.3,0.8,0.5,1.2,0.7c0.2,0.1,0.3,0.1,0.5,0.2
						c0.6,0.2,1.2,0.5,1.7,0.7c1,0.4,2,0.7,3.1,0.9c0.1,0,0.2,0,0.2,0.1c4.2,1,8.4,1.1,12.9,1c2.2-0.1,4.5-0.2,6.8-0.4
						c0.8,0,1.5-0.1,2.3-0.1c0.1,0,0.1,0,0.2,0c1.1-0.1,2.2-0.1,3.4-0.2c1.5-0.1,2.9-0.1,4.5-0.1l-0.4,2.1c-0.3,1.6-0.9,3.2-1.8,4.6
						c-0.9,1.8-1.7,3.2-1.1,6.5l0.3,1.6c-0.8,1.4-0.9,3.1-0.2,4.6l0.1,0.2l-6.1,10.3l-0.4,0.7l2.2,0.4l2.7,0.4l4.6,0.7l8.8-12.3
						l0.4-0.6l0,0l3.4-25.8c0-0.2,0-0.5,0.1-0.7c0.1-2.1-0.7-4.2-2.1-5.7c-1.4-1.5-3.3-2.4-5.4-2.4l-2.3-0.1l-4.8-0.1l-3.3-0.1
						l-0.1,0l-9.9-0.3l-0.2-2.9l-0.1-0.1l-3.8-2.1l-13.3-7.4l0,0l-0.9-0.5l-0.1,0.2c0,0-0.1,0.1-0.1,0.1c-1.2,1.5-2.2,3.1-3,4.8
						c-1.4,2.8-2.7,5.6-3.8,8.6c0,0.1-0.1,0.2-0.1,0.3l0,0c0,0,0,0.1,0,0.1C84.1,211.2,84,212.9,84.4,214.6z"/>
					<path id="路径_00000156586377989341511310000003519447733443859620_" class="st4" d="M85.3,205.1c0.1-0.2,0.2-0.4,0.3-0.5
						c0.7-1.3,1.5-2.7,2.3-3.9c0.9-1.4,2.1-3,3.3-4.6c0.6-0.8,1.3-1.6,2-2.5c0.4-0.4,0.7-0.9,1.1-1.3c0,0,0,0,0-0.1l0.1-0.1
						l13.6,4.1l0,1.9l1,2.7l-0.1,0.1c0,0,0,0,0,0v-0.4l0.4,0.4l3.5,4.4l0,0l7.9,0.2l8.1,0.2l4.4,0.1c2,0.1,4,0.9,5.4,2.4
						c1.5,1.5,2.2,3.6,2.1,5.7c0,0.2,0,0.4,0,0.6l2.5,10.2c1.5,6.1,2.1,12.4,1.7,18.6l1.5,9.9l-0.4,0l-6.3-0.4l-1.7-0.1l-2.8-5.9
						c-0.3-0.7-0.6-1.4-0.9-2.1c-0.4-1.1-0.8-2.3-1.1-3.5l-4.9-20c-0.6,0-1.2,0-1.9,0c-2.8,0-5.5,0-8.1-0.2
						c-8.4-0.4-15.5-1.4-21.8-3.2c-1.8-0.5-3.4-1.1-5-1.7c-0.6-0.2-1.2-0.5-1.7-0.7c-0.1-0.1-0.3-0.1-0.4-0.2
						c-2.4-1-4.1-3.2-4.5-5.8C84.5,208,84.7,206.4,85.3,205.1L85.3,205.1z"/>
					<path id="路径_00000041289269412229952810000006344262367266839219_" class="st4" d="M142.6,263.3l4.7-1.4l0.7-0.2l0.7,2.9
						l7.4,2.9c0.8,0.3,1.2,1,1.2,1.9c-0.1,0.8-0.6,1.5-1.4,1.7l-8,1.9l-2-2.5l0.1,3l-3,0.7l-1.5-10.4L142.6,263.3z"/>
					<polygon id="路径_00000064324596603612436080000005211033834965000108_" class="st4" points="116.3,254.8 115.9,255.5 
						116.2,255.6 					"/>
					<path id="路径_00000113327605765699320450000010104733864362557113_" class="st4" d="M117.7,255.9l4.3,2.3l0.7,0.4l-1.5,2.5
						l3.2,7.3c0.3,0.7,0.1,1.6-0.5,2.1c-0.6,0.5-1.5,0.6-2.2,0.2l-7-4.3l0.3-3.2l-2,2.2l-2.6-1.6l6.2-8.4L117.7,255.9z"/>
					<path id="路径_00000113316229378721479130000005335054729977283737_" class="st3" d="M149.1,123.3c0.1,1-0.3,1.9-1,2.6
						c-0.7,0.7-1.7,1-2.6,1l-4.8,10.7l-3.3-5.2l5.1-9.4c0.3-1.7,1.7-2.9,3.4-2.8C147.6,120.3,149,121.6,149.1,123.3L149.1,123.3z"/>
					<path id="路径_00000104663712229264858270000005759060800589235093_" class="st5" d="M136.8,155.2l-22.2,17
						c-3.7,2.8-8.9,2.1-11.7-1.6l0,0c-1.5-2-2.1-4.5-1.5-6.9c0.6-2.4,2.1-4.5,4.4-5.6l22.1-11.2l9.9-19.3l6.6,2L136.8,155.2z"/>
					<path id="路径_00000121961782634962364270000014906128834513938354_" class="st5" d="M89.6,175.4l-0.4,16.5
						c-6.2,10.5-6.9,15.5-5.2,18.3l25.4-9.3l0.4-1l1.3-7.4l2.4-7.6c0.4-0.8,6.2-5.7,0.8-14.9l-10.8-14.6l-8.7-0.5
						c-1.4,3.7,1.2,5.7-1.4,6.5C87.6,166.7,88.4,167.6,89.6,175.4z"/>
					<path id="路径_00000142150082496425164590000011940288528291867543_" class="st3" d="M72.3,221.7c-0.4-0.9-0.4-1.9,0-2.8
						s1.2-1.5,2.2-1.8l1.1-11.7l4.8,3.8l-1.7,10.6c0.3,1.7-0.7,3.3-2.3,3.8C74.7,224,73,223.2,72.3,221.7L72.3,221.7z"/>
					<path id="路径_00000060017152441990927840000005286128507545753752_" class="st5" d="M73.6,187.5L89,164.2
						c2.5-3.8,7.7-4.9,11.6-2.4l0,0c2.1,1.4,3.4,3.6,3.7,6.1c0.3,2.5-0.6,4.9-2.3,6.7l-17.2,17.8l-3.1,21.5l-6.9,0.3L73.6,187.5z"/>
					<path id="路径_00000021106923353868191990000015321758066198913195_" class="st4" d="M106.2,134.8c3.1,6.1,1.1,13.1-4.6,16.8
						c-6.2,4-14.2,3.1-16.8-4.6c-2.9-8.7-0.5-12.4,4.6-16.8C95.5,125,102.9,128.2,106.2,134.8z"/>
					<path id="路径_00000152252582280223576530000017389211585912753854_" class="st3" d="M91.1,148.3c3.3,4.3,9.4,5.1,13.6,1.8
						c4.3-3.3,5.1-9.4,1.9-13.7l-0.1-0.1c-3.3-4.2-9.3-4.9-13.6-1.6C88.7,138,87.9,144.1,91.1,148.3L91.1,148.3z"/>
					<path id="路径_00000036940364091342251220000008278055210275189925_" class="st4" d="M109.2,133.8c-1.6,1.5-3.5,2.6-5.6,3.2
						c-0.4-0.5-0.9-0.9-1.5-1.2c0.3,0.6,0.4,1.1,0.5,1.8c-0.9,2-4.8,3.4-8.4,4.8l-4.8-8.6l6.4-3.6
						C100.9,126.5,107,128.1,109.2,133.8z"/>
					<path id="路径_00000044894504645671139270000000851314981666883719_" class="st4" d="M85.7,130.2c-0.9-0.4-2-0.2-2.8,0.4
						c-0.8,0.6-1.4,1.4-1.8,2.2c-0.8,1.4-1.3,3-1.7,4.6c-0.3,1.4-0.2,3.1,1,3.8c1,0.6,2.5,0.2,3.5-0.6s1.5-1.9,1.9-3
						c0.5-1.1,0.9-2.2,1.7-3.2l-0.9,0.4c0.3-0.8,0.4-1.7,0.4-2.6C87,131.4,86.5,130.6,85.7,130.2z"/>
					<path id="路径_00000176758307092197639080000010595152144010423952_" class="st4" d="M96.8,131.3l-6.9,3.9
						c-3.9,2.2-5.2,7.1-3,11l0,0c3.2,5.6,10.1,7.9,16,5.3l-6.3-5.6l8.5,4.4l1.8-1C97.8,147.6,96,140.4,96.8,131.3z"/>
				</g>
				<path id="路径-2" class="st6" d="M155,118c23.6-8.3,32.5-17.4,26.9-27.5c-8.6-12.3-19.2-3.2-17.2,2.7
					c0.4,0.6,3.8,15.7,36.9,7.7c22.1-5.4,38.5-13.7,49.4-24.9"/>
				<g id="飞机" transform="translate(243.000000, 36.000000)">
					<path id="形状_00000041293499902946146700000017346400052449646218_" class="st5" d="M39.4,0.2L39.4,0.2
						c-0.4-0.3-1-0.3-1.4,0l-37.5,25h0C0.2,25.5,0,25.9,0,26.4h0c0,0.5,0.3,0.9,0.8,1l9.8,3.9l4.6,8l0,0c0.2,0.4,0.6,0.6,1.1,0.6h0
						c0.4,0,0.8-0.2,1.1-0.6l2.6-4.3L32,39.9l0,0c0.4,0.1,0.7,0.1,1.1-0.1c0.3-0.2,0.6-0.5,0.6-0.9L40,1.5v0
						C40.1,1,39.8,0.5,39.4,0.2L39.4,0.2z M3.9,26l29-19.3L11.8,29.2c-0.1-0.1-0.2-0.2-0.3-0.2L3.9,26L3.9,26z M12.7,30.1L12.7,30.1
						L36.4,4.7L16.2,36.2L12.7,30.1L12.7,30.1z M31.5,37l-10.7-4.3l0,0c-0.2-0.1-0.5-0.1-0.8-0.1L36.5,7.1L31.5,37L31.5,37z"/>
				</g>
			</g>
		</g>
	</g>
</g>
</svg>
